<?xml version="1.0" encoding="utf-8"?>
<!-- Generator: Adobe Illustrator 27.3.1, SVG Export Plug-In . SVG Version: 6.00 Build 0)  -->
<svg version="1.1" id="Layer_1" xmlns="http://www.w3.org/2000/svg" xmlns:xlink="http://www.w3.org/1999/xlink" x="0px" y="0px"
	 viewBox="0 0 512 512" style="enable-background:new 0 0 512 512;" xml:space="preserve">
<style type="text/css">
	.st0{fill:#175590;}
</style>
<g>
	<path class="st0" d="M512,90.09c-1.51,12.29-2.98,24.18-4.45,36.06c-1.09,8.77-2.36,17.53-3.18,26.33
		c-0.32,3.41-2.31,3.09-4.5,3.09c-17.96-0.02-35.92-0.05-53.88-0.08c-1.21,0-2.43-0.02-3.64,0.01c-5.09,0.13-5.31,0.67-5.87,5.65
		c-1.88,16.61-4.01,33.2-6,49.8c-2.38,19.85-4.67,39.7-7.11,59.54c-1.71,13.94-3.6,27.86-5.42,41.79c-0.08,0.6-0.17,1.2-0.23,1.81
		c-0.72,7.42-0.72,7.42-8.02,7.42c-18.2-0.01-36.41-0.02-54.61-0.04c-1.3,0-2.61,0-4.41,0c0.44-3.29,0.83-6.13,1.19-8.96
		c1.61-12.85,3.18-25.7,4.82-38.55c1.04-8.16,2.26-16.3,3.27-24.47c2.13-17.18,4.19-34.37,6.25-51.56
		c1.51-12.62,3.01-25.24,4.44-37.87c0.51-4.54,0.4-4.59-4.35-4.6c-19.05-0.03-38.11-0.04-57.16-0.05c-1.2,0-2.4,0-4.29,0
		c0.65-5.04,1.32-9.75,1.87-14.47c1.4-12.15,2.74-24.31,4.12-36.46c0.48-4.21,0.78-8.46,1.65-12.58c0.21-0.99,2.39-2.18,3.68-2.21
		c9.46-0.16,18.92-0.04,28.39-0.03c49.51,0.07,99.03,0.15,148.54,0.2c4.73,0,9.46-0.18,14.19-0.19
		C508.82,89.68,510.34,89.94,512,90.09z"/>
	<path class="st0" d="M113.5,321.3c1.05-8.52,2.06-16.79,3.08-25.05c1.62-13.21,3.24-26.42,4.87-39.63
		c1.79-14.53,3.65-29.06,5.39-43.6c1.91-15.99,3.5-32.02,5.63-47.98c1.54-11.54-1.54-10.14,10.99-10.15
		c42.95-0.04,85.9-0.05,128.85-0.05c4.83,0,4.63,0.04,4.02,4.73c-1.53,11.65-2.85,23.33-4.27,35c-1.49,12.26-3.02,24.52-4.5,36.79
		c-1.69,13.95-3.36,27.91-5.03,41.86c-1.77,14.8-3.59,29.59-5.24,44.4c-0.34,3.03-1.46,4-4.58,3.99
		c-45.26-0.11-90.52-0.09-135.78-0.11C115.84,321.47,114.78,321.36,113.5,321.3z M223.68,202.67c-0.84-0.25-1.29-0.5-1.74-0.5
		c-14.68-0.04-29.36-0.11-44.04,0.05c-0.97,0.01-2.6,1.76-2.76,2.88c-1.16,7.79-1.99,15.62-2.98,23.43
		c-1.74,13.7-3.46,27.39-5.34,41.07c-0.65,4.73-0.77,4.84,3.83,4.84c12.38-0.01,24.75-0.11,37.13-0.07
		c8.78,0.03,7.18,0.61,8.29-7.56c2.05-14.99,3.76-30.02,5.56-45.05C222.39,215.44,223,209.08,223.68,202.67z"/>
	<path class="st0" d="M8.88,320.89c0.94-6.69,1.95-13.49,2.84-20.31c1.9-14.65,3.75-29.3,5.58-43.95
		c1.86-14.89,3.69-29.78,5.5-44.68c1.85-15.26,3.6-30.53,5.48-45.79c1.73-14.05,3.64-28.08,5.34-42.14
		c1.23-10.21,2.33-20.44,3.29-30.68c0.27-2.92,1.32-3.83,4.29-3.81c19.65,0.13,39.31,0.12,58.96,0.01c3.13-0.02,3.62,1.18,3.25,3.97
		c-2.39,18.01-4.69,36.03-6.93,54.06c-2.66,21.39-5.24,42.8-7.83,64.2c-2.32,19.24-4.52,38.49-6.91,57.71
		c-1.62,12.98-3.51,25.92-5.24,38.89c-0.48,3.6-0.65,7.25-1.3,10.82c-0.16,0.9-1.6,2.24-2.46,2.24
		c-20.99,0.08-41.97,0.01-62.96-0.06C9.58,321.39,9.37,321.17,8.88,320.89z"/>
	<path class="st0" d="M211.01,336.73c-21.7,0-42.97,0-64.19,0c-1.68,12.45-3.25,24.69-5.01,36.89c-1.75,12.19-1.91,24.62-4.78,37.52
		c-1.16-1.38-1.73-1.86-2.04-2.47c-5.53-10.78-11.09-21.55-16.43-32.43c-0.5-1.02,0.01-3.06,0.77-4.11
		c5.53-7.68,11.25-15.22,16.88-22.83c2.98-4.03,5.89-8.11,9.34-12.86c-7.25,0-13.64,0.11-20.02-0.05c-2.77-0.07-4.55,1.01-6.05,3.2
		c-2.67,3.9-5.49,7.7-8.26,11.54c-2.17,3.01-3.09,3.02-4.76-0.18c-2.08-3.97-3.94-8.06-6.07-12c-0.55-1.01-1.72-2.37-2.63-2.39
		c-7.26-0.2-14.52-0.11-22.61-0.11c5.88,11.93,11.26,23.15,16.98,34.21c1.38,2.67,1.44,4.44-0.4,6.82
		c-7.87,10.16-15.58,20.45-23.31,30.72c-0.72,0.96-1.15,2.13-2.08,3.9c7.4,0,13.96,0.23,20.48-0.15c1.83-0.11,3.98-1.66,5.26-3.16
		c3.06-3.59,5.68-7.56,8.49-11.36c2.49-3.37,2.98-3.34,4.73,0.27c1.8,3.71,3.63,7.4,5.34,11.15c0.97,2.13,2.4,3.06,4.8,3.05
		c13.11-0.06,26.21-0.08,39.32,0.07c2.79,0.03,3.88-0.95,4.16-3.62c0.63-5.9,1.48-11.78,2.21-17.66c0.7-5.6,0.69-5.59,6.39-5.6
		c11.04-0.02,22.09-0.15,33.13-0.06c3.23,0.02,4.77-0.87,5.13-4.4c0.88-8.8,2.25-17.54,3.33-26.32
		C209.82,348.57,210.36,342.81,211.01,336.73z M186.84,360.12v4.04h-22.39v-6.84h22.39V360.12z"/>
	<path class="st0" d="M63.72,390.76c-9.7,0.06-19.41,0.01-29.11-0.02c-2.79-0.01-5.59,0.09-8.35-0.21c-0.95-0.1-2.61-1.43-2.51-1.88
		c0.24-1.11,1.13-2.56,2.11-2.92c1.64-0.61,3.55-0.63,5.35-0.64c11.04-0.08,22.07-0.13,33.11-0.09c2.56,0.01,3.67-0.93,3.93-3.54
		c0.48-4.81,1.23-9.6,1.94-14.39c0.4-2.68-0.51-3.72-3.33-3.63c-7.64,0.25-15.28,0.27-22.92,0.35c-4.61,0.05-9.23,0.19-13.82-0.05
		c-0.95-0.05-2.64-1.7-2.55-2.45c0.13-1.18,1.27-2.62,2.38-3.2c1.05-0.56,2.61-0.18,3.94-0.18c11.28,0.02,22.56,0.1,33.84-0.01
		c1.3-0.01,3.61-1,3.72-1.77c0.9-6.4,1.39-12.86,2.03-19.46c-21.74,0-43.14,0-64.38,0C6.05,361.73,3.04,386.55,0,411.65
		c21.7,0,43.1,0,64.69,0c0.68-5.76,0.97-11.35,2.12-16.75C67.5,391.64,66.86,390.74,63.72,390.76z"/>
	<path class="st0" d="M273.06,363.53c-9.58,0.08-19.17,0.2-28.75,0.24c-2.91,0.01-5.84-0.05-8.71-0.44
		c-0.84-0.11-2.05-1.4-2.12-2.23c-0.07-0.84,0.91-2.27,1.73-2.55c1.55-0.53,3.33-0.56,5.01-0.57c11.28-0.04,22.57,0.02,33.85-0.09
		c1.1-0.01,3.05-0.79,3.14-1.43c0.98-6.52,1.65-13.08,2.45-20.02c-1.97,0-3.04,0-4.11,0c-18.81,0-37.62,0.09-56.42-0.08
		c-3.49-0.03-4.18,1.41-4.52,4.43c-1.95,17.45-4.06,34.89-6.17,52.32c-0.74,6.1-1.65,12.19-2.54,18.78c4.46,0,8.67,0,12.88,0
		c16.02,0.02,32.04,0.07,48.05-0.01c1.29-0.01,3.58-0.81,3.72-1.55c1.12-6.26,1.85-12.59,2.78-19.51c-5.67,0-10.61,0-15.55,0
		c-8.25,0.01-16.5,0.11-24.75-0.08c-1.13-0.03-2.23-1.48-3.34-2.27c0.92-1.01,1.66-2.51,2.79-2.91c1.65-0.59,3.58-0.51,5.39-0.51
		c10.8-0.04,21.6,0.03,32.4-0.09c1.22-0.01,3.38-0.78,3.51-1.49c1.15-6.41,1.95-12.88,2.94-19.94
		C274.95,363.53,274.01,363.52,273.06,363.53z"/>
	<path class="st0" d="M344.17,336.44c-18.81,0-37.62,0.08-56.43-0.08c-3.24-0.03-4.37,0.9-4.73,4.13
		c-1.73,15.52-3.72,31.01-5.6,46.51c-0.99,8.16-1.92,16.32-2.93,24.9c6.15,0,12.19-0.07,18.24,0.04c2.24,0.04,3.26-0.66,3.47-3.01
		c0.55-6.27,1.24-12.53,2.02-18.78c0.27-2.17,0.14-4.79,3.34-5.27c2.99-0.45,4.46,1.24,5.56,3.63c2.95,6.38,6.07,12.68,8.81,19.14
		c1.31,3.09,2.94,4.53,6.48,4.32c5.2-0.32,10.43-0.05,15.65-0.08c1.25-0.01,2.5-0.17,4.25-0.29c-4.22-8.94-8.17-17.32-12.53-26.57
		c3.25,0,5.53-0.05,7.8,0.01c5.14,0.13,5,0.12,5.6-5.08c1.49-13,3.08-25.98,4.73-38.96C348.48,336.44,348.61,336.45,344.17,336.44z
		 M324.16,364.16h-22.39v-6.84h22.39V364.16z"/>
	<path class="st0" d="M415.48,336.58c-20.12-0.05-40.24-0.12-60.36-0.02c-1.04,0.01-2.8,1.38-2.97,2.34
		c-1.14,6.14-1.93,12.35-2.91,19.1c6.33,0,12.12,0.11,17.9-0.05c2.77-0.08,3.72,0.97,3.41,3.62c-1.13,9.97-2.13,19.96-3.34,29.92
		c-0.81,6.67-1.89,13.3-2.96,20.66c5.92,0,11.36-0.14,16.79,0.05c3.56,0.13,5.06-0.98,5.46-4.81c1.6-15.16,3.69-30.28,5.39-45.43
		c0.35-3.16,1.69-4.14,4.65-4.05c4.72,0.14,9.46,0.2,14.18-0.05c1.26-0.07,3.39-1.21,3.54-2.12c0.99-6.18,1.55-12.43,2.22-18.41
		C415.67,336.72,415.57,336.58,415.48,336.58z"/>
</g>
</svg>
